<svg width="342" height="132" viewBox="0 0 342 132" fill="none" xmlns="http://www.w3.org/2000/svg">
<rect width="342" height="132" rx="10" fill="white" fill-opacity="0.02"/>
<rect x="0.5" y="0.5" width="341" height="131" rx="9.5" stroke="white" stroke-opacity="0.1"/>
<path d="M110.745 49.52C110.836 48.8367 110.836 48.3356 110.836 47.5158C110.836 41.6401 108.058 35.7643 99.9956 35.7643C92.3889 35.7643 88.6084 41.0479 88.6084 48.4723C88.6084 54.6668 91.979 60.4515 99.7677 60.4515C107.147 60.4515 109.743 55.7145 110.563 52.8449H104.049C103.412 54.2569 102.637 55.3501 99.9044 55.3501C96.6705 55.3501 95.1674 52.4805 95.1674 49.52H110.745ZM95.3041 45.5116C95.5773 42.5966 96.8527 40.4558 99.95 40.4558C103.138 40.4558 104.232 42.7787 104.277 45.5116H95.3041ZM114.602 59.9049H133.687L134.461 54.7579H122.209L133.641 41.4123V36.3109H115.149V41.4578H126.263L114.602 54.9857V59.9049ZM136.971 36.3109L145.579 60.6336C144.669 63.23 143.484 64.0498 141.07 64.0498C140.524 64.0498 139.84 64.0042 139.385 63.9587V69.1968C140.524 69.3335 141.845 69.379 142.437 69.379C148.085 69.379 149.998 67.3749 152.23 60.5882L160.156 36.3109H153.642C150.863 46.2405 149.451 51.524 148.95 53.8925H148.904C148.54 51.7062 146.399 44.464 143.985 36.3109H136.971ZM178.039 52.2984C177.447 54.0748 176.263 55.3957 173.986 55.3957C171.161 55.3957 169.34 53.1182 169.34 48.0624C169.34 43.5076 171.025 40.9112 174.031 40.9112C176.582 40.9112 177.675 42.2321 178.085 44.1452H184.416C184.325 41.5034 182.093 35.7643 174.167 35.7643C166.972 35.7643 162.735 41.3212 162.735 48.2901C162.735 55.3957 166.516 60.4515 173.848 60.4515C180.864 60.4515 183.641 56.2155 184.416 52.2984H178.039ZM200.218 35.7643C192.748 35.7643 188.331 40.9112 188.331 48.1989C188.331 55.2134 192.612 60.4515 199.9 60.4515C207.37 60.4515 211.651 55.2134 211.651 48.0624C211.651 40.6836 207.143 35.7643 200.218 35.7643ZM199.946 40.9112C203.225 40.9112 205.047 43.2342 205.047 48.1534C205.047 52.6628 203.271 55.3501 200.037 55.3501C196.894 55.3501 194.935 52.6628 194.935 48.1079C194.935 43.1431 196.939 40.9112 199.946 40.9112ZM237.8 36.3109H231.286V48.8822C231.286 53.5282 230.057 55.1223 227.096 55.1223C224.272 55.1223 223.452 52.9816 223.452 50.3854V36.3109H216.938V51.7062C216.938 57.5364 219.991 60.4515 224.774 60.4515C227.825 60.4515 229.874 59.5405 231.286 57.172C231.332 57.9919 231.377 59.2672 231.469 59.9049H237.845C237.8 57.8097 237.8 55.3045 237.8 53.0727V36.3109ZM244.585 59.9049H251.144V49.6109C251.144 43.1431 253.968 41.8678 258.705 42.0044V35.7643C254.696 35.8098 252.191 37.7684 251.144 40.4558C251.144 39.1804 251.052 36.8575 250.961 36.3109H244.539C244.585 38.315 244.585 40.3646 244.585 42.7332V59.9049ZM261.827 52.7993C262.374 56.9898 265.29 60.4515 272.485 60.4515C279.636 60.4515 282.643 56.8988 282.643 52.9816C282.643 49.52 281.504 46.8325 273.624 45.0106C269.798 44.0996 269.07 43.553 269.07 42.3688C269.07 41.3212 269.798 40.3646 271.94 40.3646C274.991 40.3646 275.583 42.0044 275.811 42.8698H282.006C281.823 39.6815 279.363 35.7643 272.213 35.7643C265.107 35.7643 262.692 39.4537 262.692 42.9154C262.692 46.2405 263.923 48.609 271.62 50.5219C274.991 51.3419 275.993 51.9339 275.993 53.437C275.993 54.8946 275.128 55.76 272.713 55.76C270.3 55.76 268.75 54.7124 268.25 52.7993H261.827ZM308.767 49.52C308.857 48.8367 308.857 48.3356 308.857 47.5158C308.857 41.6401 306.08 35.7643 298.018 35.7643C290.41 35.7643 286.63 41.0479 286.63 48.4723C286.63 54.6668 290.001 60.4515 297.79 60.4515C305.168 60.4515 307.764 55.7145 308.584 52.8449H302.07C301.433 54.2569 300.659 55.3501 297.926 55.3501C294.692 55.3501 293.189 52.4805 293.189 49.52H308.767ZM293.325 45.5116C293.599 42.5966 294.875 40.4558 297.971 40.4558C301.159 40.4558 302.253 42.7787 302.298 45.5116H293.325Z" fill="white"/>
<path d="M76.749 71.7942H44.8887V63.1924L64.2425 40.2168H52.821C51.4291 40.2168 50.1449 39.4676 49.4599 38.2559L45.7375 31.6716H76.5226V38.0423C76.5226 39.2634 76.0887 40.4447 75.298 41.3754L56.7161 63.2491H71.6009C74.4441 63.2491 76.749 65.5539 76.749 68.3972V71.7942Z" fill="#E8F54A"/>
<path d="M37.5966 71.8446L64.3502 40.2517L52.3718 63.6786L53.0078 71.7349L37.5966 71.8446Z" fill="#E8F54A"/>
<path d="M21.1007 35.5169C21.1007 33.3832 22.8313 31.6541 24.965 31.6558L40.4804 31.6684C42.4071 31.67 44.1715 32.7471 45.0534 34.46L48.0173 40.2169L24.9662 40.2429C22.8321 40.2453 21.1007 38.5159 21.1007 36.3818V35.5169Z" fill="white"/>
<path d="M21.1007 51.5189C21.1007 49.0842 23.0744 47.1105 25.509 47.1105H55.3663L47.7748 55.9271H25.509C23.0744 55.9271 21.1007 53.9535 21.1007 51.5189Z" fill="white"/>
<path d="M29.9173 47.1105V71.3372L27.4435 71.3017C23.9259 71.2512 21.1007 68.3852 21.1007 64.8671L21.1007 52.2587C21.1007 49.4155 23.4056 47.1105 26.2489 47.1105H29.9173Z" fill="white"/>
<path d="M21.1007 62.9781H42.2538L34.675 71.7947H26.2489C23.4056 71.7947 21.1007 69.4897 21.1007 66.6465V62.9781Z" fill="white"/>
<path d="M25.332 101.705V90.4193H21.247V88.4053H31.621V90.4193H27.536V101.705H25.332ZM33.07 101.705V88.4053H35.198V101.705H33.07ZM39.511 101.705V96.8413H41.639V101.705H39.511ZM39.511 96.8413C39.511 96.0813 39.4224 95.4986 39.245 95.0933C39.0677 94.6753 38.8207 94.3839 38.504 94.2193C38.2 94.0546 37.8454 93.9723 37.44 93.9723C36.718 93.9596 36.1607 94.1939 35.768 94.6753C35.388 95.1566 35.198 95.8469 35.198 96.7463H34.381C34.381 95.7456 34.5267 94.8906 34.818 94.1813C35.122 93.4593 35.5464 92.9146 36.091 92.5473C36.6357 92.1673 37.2817 91.9773 38.029 91.9773C38.7764 91.9773 39.4224 92.1293 39.967 92.4333C40.5117 92.7373 40.9234 93.2123 41.202 93.8583C41.4934 94.4916 41.639 95.3213 41.639 96.3473V96.8413H39.511ZM48.0312 101.933C47.1065 101.933 46.2832 101.724 45.5612 101.306C44.8519 100.876 44.2882 100.287 43.8702 99.5393C43.4649 98.7919 43.2622 97.9306 43.2622 96.9553C43.2622 95.9799 43.4712 95.1186 43.8892 94.3713C44.3072 93.6239 44.8772 93.0413 45.5992 92.6233C46.3339 92.1926 47.1699 91.9773 48.1072 91.9773C48.9559 91.9773 49.7222 92.1989 50.4062 92.6423C51.0902 93.0729 51.6285 93.6999 52.0212 94.5233C52.4265 95.3466 52.6292 96.3283 52.6292 97.4683H45.1622L45.4472 97.2023C45.4472 97.7849 45.5739 98.2916 45.8272 98.7223C46.0805 99.1403 46.4162 99.4633 46.8342 99.6913C47.2522 99.9193 47.7145 100.033 48.2212 100.033C48.8039 100.033 49.2852 99.9066 49.6652 99.6533C50.0452 99.3873 50.3429 99.0453 50.5582 98.6273L52.4392 99.4253C52.1732 99.9319 51.8312 100.375 51.4132 100.755C51.0079 101.135 50.5202 101.427 49.9502 101.629C49.3929 101.832 48.7532 101.933 48.0312 101.933ZM45.5802 96.1003L45.2762 95.8343H50.6342L50.3492 96.1003C50.3492 95.5809 50.2352 95.1566 50.0072 94.8273C49.7792 94.4853 49.4879 94.2319 49.1332 94.0673C48.7912 93.8899 48.4302 93.8013 48.0502 93.8013C47.6702 93.8013 47.2902 93.8899 46.9102 94.0673C46.5302 94.2319 46.2135 94.4853 45.9602 94.8273C45.7069 95.1566 45.5802 95.5809 45.5802 96.1003ZM59.2411 101.705V88.4053H63.6301C64.5421 88.4053 65.3274 88.5446 65.9861 88.8233C66.6574 89.1019 67.1767 89.5199 67.5441 90.0773C67.9114 90.6219 68.0951 91.3059 68.0951 92.1293C68.0951 92.6993 67.9557 93.2123 67.6771 93.6683C67.4111 94.1243 67.0311 94.5043 66.5371 94.8083C67.1831 95.1249 67.6771 95.5493 68.0191 96.0813C68.3611 96.6133 68.5321 97.2466 68.5321 97.9813C68.5321 98.7666 68.3547 99.4379 68.0001 99.9953C67.6454 100.553 67.1451 100.977 66.4991 101.268C65.8531 101.56 65.0867 101.705 64.2001 101.705H59.2411ZM61.4071 99.7293H64.0291C64.7257 99.7293 65.2767 99.5583 65.6821 99.2163C66.0874 98.8743 66.2901 98.4119 66.2901 97.8293C66.2901 97.1959 66.0621 96.7019 65.6061 96.3473C65.1627 95.9926 64.5357 95.8153 63.7251 95.8153H61.4071V99.7293ZM61.4071 93.9913H63.8201C64.4534 93.9913 64.9474 93.8266 65.3021 93.4973C65.6694 93.1553 65.8531 92.6866 65.8531 92.0913C65.8531 91.4833 65.6441 91.0209 65.2261 90.7043C64.8207 90.3749 64.2507 90.2103 63.5161 90.2103H61.4071V93.9913ZM74.7129 101.933C73.7882 101.933 72.9649 101.724 72.2429 101.306C71.5335 100.876 70.9699 100.287 70.5519 99.5393C70.1465 98.7919 69.9439 97.9306 69.9439 96.9553C69.9439 95.9799 70.1529 95.1186 70.5709 94.3713C70.9889 93.6239 71.5589 93.0413 72.2809 92.6233C73.0155 92.1926 73.8515 91.9773 74.7889 91.9773C75.6375 91.9773 76.4039 92.1989 77.0879 92.6423C77.7719 93.0729 78.3102 93.6999 78.7029 94.5233C79.1082 95.3466 79.3109 96.3283 79.3109 97.4683H71.8439L72.1289 97.2023C72.1289 97.7849 72.2555 98.2916 72.5089 98.7223C72.7622 99.1403 73.0979 99.4633 73.5159 99.6913C73.9339 99.9193 74.3962 100.033 74.9029 100.033C75.4855 100.033 75.9669 99.9066 76.3469 99.6533C76.7269 99.3873 77.0245 99.0453 77.2399 98.6273L79.1209 99.4253C78.8549 99.9319 78.5129 100.375 78.0949 100.755C77.6895 101.135 77.2019 101.427 76.6319 101.629C76.0745 101.832 75.4349 101.933 74.7129 101.933ZM72.2619 96.1003L71.9579 95.8343H77.3159L77.0309 96.1003C77.0309 95.5809 76.9169 95.1566 76.6889 94.8273C76.4609 94.4853 76.1695 94.2319 75.8149 94.0673C75.4729 93.8899 75.1119 93.8013 74.7319 93.8013C74.3519 93.8013 73.9719 93.8899 73.5919 94.0673C73.2119 94.2319 72.8952 94.4853 72.6419 94.8273C72.3885 95.1566 72.2619 95.5809 72.2619 96.1003ZM84.3987 101.933C83.7654 101.933 83.1827 101.838 82.6507 101.648C82.1187 101.458 81.6627 101.192 81.2827 100.85C80.9027 100.496 80.6114 100.084 80.4087 99.6153L82.2517 98.7983C82.4417 99.1529 82.7204 99.4506 83.0877 99.6913C83.4677 99.9319 83.8857 100.052 84.3417 100.052C84.8357 100.052 85.2284 99.9699 85.5197 99.8053C85.8237 99.6279 85.9757 99.3873 85.9757 99.0833C85.9757 98.7919 85.8617 98.5703 85.6337 98.4183C85.4057 98.2536 85.0827 98.1206 84.6647 98.0193L83.7717 97.7723C82.8724 97.5443 82.1694 97.1833 81.6627 96.6893C81.156 96.1826 80.9027 95.6063 80.9027 94.9603C80.9027 94.0103 81.2067 93.2756 81.8147 92.7563C82.4354 92.2369 83.322 91.9773 84.4747 91.9773C85.0574 91.9773 85.5894 92.0659 86.0707 92.2433C86.5647 92.4079 86.989 92.6486 87.3437 92.9653C87.6984 93.2693 87.9454 93.6303 88.0847 94.0483L86.3177 94.8463C86.191 94.5296 85.9504 94.2889 85.5957 94.1243C85.241 93.9469 84.8484 93.8583 84.4177 93.8583C83.987 93.8583 83.6514 93.9533 83.4107 94.1433C83.17 94.3206 83.0497 94.5739 83.0497 94.9033C83.0497 95.0933 83.1574 95.2706 83.3727 95.4353C83.588 95.5873 83.8984 95.7139 84.3037 95.8153L85.4247 96.0813C86.0454 96.2333 86.552 96.4739 86.9447 96.8033C87.3374 97.1199 87.6287 97.4809 87.8187 97.8863C88.0087 98.2789 88.1037 98.6779 88.1037 99.0833C88.1037 99.6533 87.939 100.154 87.6097 100.584C87.293 101.015 86.856 101.351 86.2987 101.591C85.7414 101.819 85.108 101.933 84.3987 101.933ZM93.5723 101.933C92.5716 101.933 91.8053 101.686 91.2733 101.192C90.7539 100.686 90.4943 99.9636 90.4943 99.0263V89.2413H92.6033V98.6273C92.6033 99.0706 92.7046 99.4063 92.9073 99.6343C93.1226 99.8623 93.4329 99.9763 93.8383 99.9763C93.9649 99.9763 94.1043 99.9509 94.2563 99.9003C94.4083 99.8496 94.5793 99.7546 94.7693 99.6153L95.5483 101.23C95.2189 101.458 94.8896 101.629 94.5603 101.743C94.2309 101.87 93.9016 101.933 93.5723 101.933ZM88.9173 94.0293V92.2053H95.1683V94.0293H88.9173ZM108.141 101.933C106.824 101.933 105.659 101.642 104.645 101.059C103.632 100.477 102.834 99.6659 102.251 98.6273C101.681 97.5886 101.396 96.3979 101.396 95.0553C101.396 93.7126 101.681 92.5283 102.251 91.5023C102.834 90.4636 103.626 89.6529 104.626 89.0703C105.627 88.4749 106.78 88.1773 108.084 88.1773C109.402 88.1773 110.561 88.4749 111.561 89.0703C112.575 89.6529 113.36 90.4636 113.917 91.5023C114.487 92.5283 114.772 93.7126 114.772 95.0553C114.772 96.3979 114.487 97.5886 113.917 98.6273C113.36 99.6659 112.581 100.477 111.58 101.059C110.592 101.642 109.446 101.933 108.141 101.933ZM108.141 99.9193C109.003 99.9193 109.763 99.7103 110.421 99.2923C111.08 98.8743 111.593 98.3043 111.96 97.5823C112.34 96.8476 112.53 96.0053 112.53 95.0553C112.53 94.1179 112.34 93.2819 111.96 92.5473C111.58 91.8126 111.055 91.2426 110.383 90.8373C109.725 90.4193 108.958 90.2103 108.084 90.2103C107.223 90.2103 106.457 90.4193 105.785 90.8373C105.127 91.2426 104.601 91.8126 104.208 92.5473C103.828 93.2693 103.638 94.1053 103.638 95.0553C103.638 96.0053 103.828 96.8476 104.208 97.5823C104.601 98.3043 105.133 98.8743 105.804 99.2923C106.488 99.7103 107.267 99.9193 108.141 99.9193ZM116.714 101.705V92.2053H118.709L118.842 93.9533V101.705H116.714ZM123.155 101.705V96.8413H125.283V101.705H123.155ZM123.155 96.8413C123.155 96.0813 123.066 95.4986 122.889 95.0933C122.724 94.6753 122.484 94.3839 122.167 94.2193C121.863 94.0546 121.502 93.9723 121.084 93.9723C120.375 93.9596 119.824 94.1939 119.431 94.6753C119.038 95.1566 118.842 95.8469 118.842 96.7463H118.044C118.044 95.7456 118.19 94.8906 118.481 94.1813C118.772 93.4593 119.19 92.9146 119.735 92.5473C120.28 92.1673 120.926 91.9773 121.673 91.9773C122.433 91.9773 123.079 92.1293 123.611 92.4333C124.156 92.7373 124.567 93.2123 124.846 93.8583C125.137 94.4916 125.283 95.3213 125.283 96.3473V96.8413H123.155ZM127.439 101.705V88.4053H129.567V101.705H127.439ZM132.062 101.705V92.2053H134.171V101.705H132.062ZM133.126 90.4003C132.784 90.4003 132.486 90.2799 132.233 90.0393C131.992 89.7859 131.872 89.4883 131.872 89.1463C131.872 88.8043 131.992 88.5129 132.233 88.2723C132.486 88.0316 132.784 87.9113 133.126 87.9113C133.468 87.9113 133.759 88.0316 134 88.2723C134.253 88.5129 134.38 88.8043 134.38 89.1463C134.38 89.4883 134.253 89.7859 134 90.0393C133.759 90.2799 133.468 90.4003 133.126 90.4003ZM136.679 101.705V92.2053H138.674L138.807 93.9533V101.705H136.679ZM143.12 101.705V96.8413H145.248V101.705H143.12ZM143.12 96.8413C143.12 96.0813 143.031 95.4986 142.854 95.0933C142.689 94.6753 142.449 94.3839 142.132 94.2193C141.828 94.0546 141.467 93.9723 141.049 93.9723C140.34 93.9596 139.789 94.1939 139.396 94.6753C139.003 95.1566 138.807 95.8469 138.807 96.7463H138.009C138.009 95.7456 138.155 94.8906 138.446 94.1813C138.737 93.4593 139.155 92.9146 139.7 92.5473C140.245 92.1673 140.891 91.9773 141.638 91.9773C142.398 91.9773 143.044 92.1293 143.576 92.4333C144.121 92.7373 144.532 93.2123 144.811 93.8583C145.102 94.4916 145.248 95.3213 145.248 96.3473V96.8413H143.12ZM151.641 101.933C150.716 101.933 149.893 101.724 149.171 101.306C148.461 100.876 147.898 100.287 147.48 99.5393C147.074 98.7919 146.872 97.9306 146.872 96.9553C146.872 95.9799 147.081 95.1186 147.499 94.3713C147.917 93.6239 148.487 93.0413 149.209 92.6233C149.943 92.1926 150.779 91.9773 151.717 91.9773C152.565 91.9773 153.332 92.1989 154.016 92.6423C154.7 93.0729 155.238 93.6999 155.631 94.5233C156.036 95.3466 156.239 96.3283 156.239 97.4683H148.772L149.057 97.2023C149.057 97.7849 149.183 98.2916 149.437 98.7223C149.69 99.1403 150.026 99.4633 150.444 99.6913C150.862 99.9193 151.324 100.033 151.831 100.033C152.413 100.033 152.895 99.9066 153.275 99.6533C153.655 99.3873 153.952 99.0453 154.168 98.6273L156.049 99.4253C155.783 99.9319 155.441 100.375 155.023 100.755C154.617 101.135 154.13 101.427 153.56 101.629C153.002 101.832 152.363 101.933 151.641 101.933ZM149.19 96.1003L148.886 95.8343H154.244L153.959 96.1003C153.959 95.5809 153.845 95.1566 153.617 94.8273C153.389 94.4853 153.097 94.2319 152.743 94.0673C152.401 93.8899 152.04 93.8013 151.66 93.8013C151.28 93.8013 150.9 93.8899 150.52 94.0673C150.14 94.2319 149.823 94.4853 149.57 94.8273C149.316 95.1566 149.19 95.5809 149.19 96.1003ZM162.85 101.705V88.4053H165.054V99.6913H171.077V101.705H162.85ZM176.764 101.933C175.839 101.933 175.016 101.724 174.294 101.306C173.584 100.876 173.021 100.287 172.603 99.5393C172.197 98.7919 171.995 97.9306 171.995 96.9553C171.995 95.9799 172.204 95.1186 172.622 94.3713C173.04 93.6239 173.61 93.0413 174.332 92.6233C175.066 92.1926 175.902 91.9773 176.84 91.9773C177.688 91.9773 178.455 92.1989 179.139 92.6423C179.823 93.0729 180.361 93.6999 180.754 94.5233C181.159 95.3466 181.362 96.3283 181.362 97.4683H173.895L174.18 97.2023C174.18 97.7849 174.306 98.2916 174.56 98.7223C174.813 99.1403 175.149 99.4633 175.567 99.6913C175.985 99.9193 176.447 100.033 176.954 100.033C177.536 100.033 178.018 99.9066 178.398 99.6533C178.778 99.3873 179.075 99.0453 179.291 98.6273L181.172 99.4253C180.906 99.9319 180.564 100.375 180.146 100.755C179.74 101.135 179.253 101.427 178.683 101.629C178.125 101.832 177.486 101.933 176.764 101.933ZM174.313 96.1003L174.009 95.8343H179.367L179.082 96.1003C179.082 95.5809 178.968 95.1566 178.74 94.8273C178.512 94.4853 178.22 94.2319 177.866 94.0673C177.524 93.8899 177.163 93.8013 176.783 93.8013C176.403 93.8013 176.023 93.8899 175.643 94.0673C175.263 94.2319 174.946 94.4853 174.693 94.8273C174.439 95.1566 174.313 95.5809 174.313 96.1003ZM188.786 101.705L188.691 99.9193V96.8223C188.691 96.1763 188.622 95.6379 188.482 95.2073C188.356 94.7639 188.14 94.4283 187.836 94.2003C187.545 93.9596 187.152 93.8393 186.658 93.8393C186.202 93.8393 185.803 93.9343 185.461 94.1243C185.119 94.3143 184.828 94.6119 184.587 95.0173L182.725 94.3333C182.928 93.9153 183.194 93.5289 183.523 93.1743C183.865 92.8069 184.29 92.5156 184.796 92.3003C185.316 92.0849 185.936 91.9773 186.658 91.9773C187.583 91.9773 188.356 92.1609 188.976 92.5283C189.597 92.8829 190.053 93.3959 190.344 94.0673C190.648 94.7386 190.8 95.5493 190.8 96.4993L190.743 101.705H188.786ZM186.05 101.933C184.91 101.933 184.024 101.68 183.39 101.173C182.77 100.667 182.459 99.9509 182.459 99.0263C182.459 98.0383 182.789 97.2846 183.447 96.7653C184.119 96.2459 185.05 95.9863 186.24 95.9863H188.786V97.6203H186.924C186.076 97.6203 185.48 97.7406 185.138 97.9813C184.796 98.2093 184.625 98.5386 184.625 98.9693C184.625 99.3366 184.771 99.6279 185.062 99.8433C185.366 100.046 185.784 100.147 186.316 100.147C186.798 100.147 187.216 100.04 187.57 99.8243C187.925 99.6089 188.197 99.3239 188.387 98.9693C188.59 98.6146 188.691 98.2156 188.691 97.7723H189.318C189.318 99.0643 189.059 100.084 188.539 100.831C188.02 101.566 187.19 101.933 186.05 101.933ZM194.361 96.6513C194.361 95.6253 194.558 94.7829 194.95 94.1243C195.343 93.4656 195.85 92.9779 196.47 92.6613C197.104 92.3319 197.762 92.1673 198.446 92.1673V94.2003C197.864 94.2003 197.313 94.2826 196.793 94.4473C196.287 94.5993 195.875 94.8526 195.558 95.2073C195.242 95.5619 195.083 96.0306 195.083 96.6133L194.361 96.6513ZM192.955 101.705V92.2053H195.083V101.705H192.955ZM199.858 101.705V92.2053H201.853L201.986 93.9533V101.705H199.858ZM206.299 101.705V96.8413H208.427V101.705H206.299ZM206.299 96.8413C206.299 96.0813 206.21 95.4986 206.033 95.0933C205.868 94.6753 205.627 94.3839 205.311 94.2193C205.007 94.0546 204.646 93.9723 204.228 93.9723C203.518 93.9596 202.967 94.1939 202.575 94.6753C202.182 95.1566 201.986 95.8469 201.986 96.7463H201.188C201.188 95.7456 201.333 94.8906 201.625 94.1813C201.916 93.4593 202.334 92.9146 202.879 92.5473C203.423 92.1673 204.069 91.9773 204.817 91.9773C205.577 91.9773 206.223 92.1293 206.755 92.4333C207.299 92.7373 207.711 93.2123 207.99 93.8583C208.281 94.4916 208.427 95.3213 208.427 96.3473V96.8413H206.299ZM210.715 101.705V92.2053H212.824V101.705H210.715ZM211.779 90.4003C211.437 90.4003 211.14 90.2799 210.886 90.0393C210.646 89.7859 210.525 89.4883 210.525 89.1463C210.525 88.8043 210.646 88.5129 210.886 88.2723C211.14 88.0316 211.437 87.9113 211.779 87.9113C212.121 87.9113 212.413 88.0316 212.653 88.2723C212.907 88.5129 213.033 88.8043 213.033 89.1463C213.033 89.4883 212.907 89.7859 212.653 90.0393C212.413 90.2799 212.121 90.4003 211.779 90.4003ZM215.332 101.705V92.2053H217.327L217.46 93.9533V101.705H215.332ZM221.773 101.705V96.8413H223.901V101.705H221.773ZM221.773 96.8413C221.773 96.0813 221.685 95.4986 221.507 95.0933C221.343 94.6753 221.102 94.3839 220.785 94.2193C220.481 94.0546 220.12 93.9723 219.702 93.9723C218.993 93.9596 218.442 94.1939 218.049 94.6753C217.657 95.1566 217.46 95.8469 217.46 96.7463H216.662C216.662 95.7456 216.808 94.8906 217.099 94.1813C217.391 93.4593 217.809 92.9146 218.353 92.5473C218.898 92.1673 219.544 91.9773 220.291 91.9773C221.051 91.9773 221.697 92.1293 222.229 92.4333C222.774 92.7373 223.186 93.2123 223.464 93.8583C223.756 94.4916 223.901 95.3213 223.901 96.3473V96.8413H221.773ZM230.142 105.752C229.471 105.752 228.863 105.695 228.318 105.581C227.786 105.467 227.336 105.334 226.969 105.182C226.602 105.03 226.317 104.885 226.114 104.745L226.931 103.035C227.108 103.124 227.343 103.232 227.634 103.358C227.938 103.498 228.293 103.618 228.698 103.719C229.103 103.821 229.559 103.871 230.066 103.871C230.611 103.871 231.098 103.757 231.529 103.529C231.96 103.314 232.295 102.978 232.536 102.522C232.777 102.066 232.897 101.484 232.897 100.774V92.2053H235.025V100.717C235.025 101.794 234.822 102.706 234.417 103.453C234.012 104.213 233.442 104.783 232.707 105.163C231.972 105.556 231.117 105.752 230.142 105.752ZM229.819 101.515C228.958 101.515 228.204 101.319 227.558 100.926C226.925 100.534 226.424 99.9889 226.057 99.2923C225.702 98.5829 225.525 97.7659 225.525 96.8413C225.525 95.8533 225.702 94.9983 226.057 94.2763C226.424 93.5543 226.925 92.9906 227.558 92.5853C228.204 92.1799 228.958 91.9773 229.819 91.9773C230.592 91.9773 231.263 92.1799 231.833 92.5853C232.416 92.9906 232.865 93.5606 233.182 94.2953C233.499 95.0173 233.657 95.8723 233.657 96.8603C233.657 97.7976 233.499 98.6146 233.182 99.3113C232.865 100.008 232.416 100.553 231.833 100.945C231.263 101.325 230.592 101.515 229.819 101.515ZM230.408 99.7103C230.889 99.7103 231.307 99.5836 231.662 99.3303C232.029 99.0769 232.314 98.7349 232.517 98.3043C232.72 97.8609 232.821 97.3543 232.821 96.7843C232.821 96.2016 232.72 95.6949 232.517 95.2643C232.314 94.8209 232.029 94.4789 231.662 94.2383C231.295 93.9849 230.87 93.8583 230.389 93.8583C229.882 93.8583 229.433 93.9849 229.04 94.2383C228.66 94.4789 228.356 94.8209 228.128 95.2643C227.913 95.6949 227.805 96.2016 227.805 96.7843C227.805 97.3543 227.913 97.8609 228.128 98.3043C228.356 98.7349 228.666 99.0769 229.059 99.3303C229.452 99.5836 229.901 99.7103 230.408 99.7103ZM242.357 101.705V88.4053H247.05C247.962 88.4053 248.767 88.5889 249.463 88.9563C250.16 89.3236 250.705 89.8366 251.097 90.4953C251.49 91.1413 251.686 91.8949 251.686 92.7563C251.686 93.5923 251.503 94.3396 251.135 94.9983C250.768 95.6569 250.255 96.1763 249.596 96.5563C248.95 96.9236 248.197 97.1073 247.335 97.1073H244.561V101.705H242.357ZM244.561 95.0743H247.297C247.931 95.0743 248.45 94.8589 248.855 94.4283C249.261 93.9976 249.463 93.4403 249.463 92.7563C249.463 92.0596 249.235 91.4959 248.779 91.0653C248.323 90.6346 247.734 90.4193 247.012 90.4193H244.561V95.0743ZM253.24 101.705V88.4053H255.368V101.705H253.24ZM263.525 101.705L263.43 99.9193V96.8223C263.43 96.1763 263.36 95.6379 263.221 95.2073C263.094 94.7639 262.879 94.4283 262.575 94.2003C262.283 93.9596 261.891 93.8393 261.397 93.8393C260.941 93.8393 260.542 93.9343 260.2 94.1243C259.858 94.3143 259.566 94.6119 259.326 95.0173L257.464 94.3333C257.666 93.9153 257.932 93.5289 258.262 93.1743C258.604 92.8069 259.028 92.5156 259.535 92.3003C260.054 92.0849 260.675 91.9773 261.397 91.9773C262.321 91.9773 263.094 92.1609 263.715 92.5283C264.335 92.8829 264.791 93.3959 265.083 94.0673C265.387 94.7386 265.539 95.5493 265.539 96.4993L265.482 101.705H263.525ZM260.789 101.933C259.649 101.933 258.762 101.68 258.129 101.173C257.508 100.667 257.198 99.9509 257.198 99.0263C257.198 98.0383 257.527 97.2846 258.186 96.7653C258.857 96.2459 259.788 95.9863 260.979 95.9863H263.525V97.6203H261.663C260.814 97.6203 260.219 97.7406 259.877 97.9813C259.535 98.2093 259.364 98.5386 259.364 98.9693C259.364 99.3366 259.509 99.6279 259.801 99.8433C260.105 100.046 260.523 100.147 261.055 100.147C261.536 100.147 261.954 100.04 262.309 99.8243C262.663 99.6089 262.936 99.3239 263.126 98.9693C263.328 98.6146 263.43 98.2156 263.43 97.7723H264.057C264.057 99.0643 263.797 100.084 263.278 100.831C262.758 101.566 261.929 101.933 260.789 101.933ZM271.475 101.933C270.474 101.933 269.708 101.686 269.176 101.192C268.656 100.686 268.397 99.9636 268.397 99.0263V89.2413H270.506V98.6273C270.506 99.0706 270.607 99.4063 270.81 99.6343C271.025 99.8623 271.335 99.9763 271.741 99.9763C271.867 99.9763 272.007 99.9509 272.159 99.9003C272.311 99.8496 272.482 99.7546 272.672 99.6153L273.451 101.23C273.121 101.458 272.792 101.629 272.463 101.743C272.133 101.87 271.804 101.933 271.475 101.933ZM266.82 94.0293V92.2053H273.071V94.0293H266.82ZM276.103 101.705V91.1983C276.103 90.1976 276.35 89.4313 276.844 88.8993C277.35 88.3546 278.11 88.0823 279.124 88.0823C279.453 88.0823 279.801 88.1393 280.169 88.2533C280.549 88.3546 280.91 88.4939 281.252 88.6713L280.473 90.2483C280.232 90.1343 280.017 90.0519 279.827 90.0013C279.649 89.9506 279.491 89.9253 279.352 89.9253C278.972 89.9253 278.687 90.0519 278.497 90.3053C278.319 90.5459 278.231 90.9449 278.231 91.5023V101.705H276.103ZM274.469 93.9533V92.2053H280.72V93.9533H274.469ZM286.648 101.933C285.698 101.933 284.849 101.724 284.102 101.306C283.367 100.876 282.791 100.287 282.373 99.5393C281.955 98.7919 281.746 97.9306 281.746 96.9553C281.746 95.9799 281.948 95.1186 282.354 94.3713C282.772 93.6239 283.348 93.0413 284.083 92.6233C284.817 92.1926 285.66 91.9773 286.61 91.9773C287.56 91.9773 288.402 92.1926 289.137 92.6233C289.871 93.0413 290.441 93.6239 290.847 94.3713C291.265 95.1186 291.474 95.9799 291.474 96.9553C291.474 97.9306 291.271 98.7919 290.866 99.5393C290.46 100.287 289.89 100.876 289.156 101.306C288.421 101.724 287.585 101.933 286.648 101.933ZM286.648 99.9763C287.167 99.9763 287.629 99.8496 288.035 99.5963C288.44 99.3303 288.757 98.9756 288.985 98.5323C289.213 98.0763 289.327 97.5506 289.327 96.9553C289.327 96.3599 289.206 95.8406 288.966 95.3973C288.738 94.9413 288.421 94.5866 288.016 94.3333C287.61 94.0673 287.142 93.9343 286.61 93.9343C286.078 93.9343 285.609 94.0609 285.204 94.3143C284.798 94.5676 284.482 94.9223 284.254 95.3783C284.026 95.8343 283.912 96.3599 283.912 96.9553C283.912 97.5506 284.026 98.0763 284.254 98.5323C284.494 98.9756 284.817 99.3303 285.223 99.5963C285.641 99.8496 286.116 99.9763 286.648 99.9763ZM294.724 96.6513C294.724 95.6253 294.92 94.7829 295.313 94.1243C295.705 93.4656 296.212 92.9779 296.833 92.6613C297.466 92.3319 298.125 92.1673 298.809 92.1673V94.2003C298.226 94.2003 297.675 94.2826 297.156 94.4473C296.649 94.5993 296.237 94.8526 295.921 95.2073C295.604 95.5619 295.446 96.0306 295.446 96.6133L294.724 96.6513ZM293.318 101.705V92.2053H295.446V101.705H293.318ZM300.22 101.705V92.2053H302.215L302.31 93.4783C302.601 92.9843 302.975 92.6106 303.431 92.3573C303.887 92.1039 304.406 91.9773 304.989 91.9773C305.749 91.9773 306.395 92.1483 306.927 92.4903C307.459 92.8323 307.845 93.3516 308.086 94.0483C308.365 93.3769 308.757 92.8639 309.264 92.5093C309.771 92.1546 310.366 91.9773 311.05 91.9773C312.152 91.9773 313.001 92.3319 313.596 93.0413C314.191 93.7379 314.483 94.8146 314.47 96.2713V101.705H312.361V96.8413C312.361 96.0813 312.279 95.4986 312.114 95.0933C311.949 94.6753 311.728 94.3839 311.449 94.2193C311.17 94.0546 310.847 93.9723 310.48 93.9723C309.821 93.9596 309.308 94.1939 308.941 94.6753C308.586 95.1566 308.409 95.8469 308.409 96.7463V101.705H306.281V96.8413C306.281 96.0813 306.199 95.4986 306.034 95.0933C305.882 94.6753 305.667 94.3839 305.388 94.2193C305.109 94.0546 304.786 93.9723 304.419 93.9723C303.76 93.9596 303.247 94.1939 302.88 94.6753C302.525 95.1566 302.348 95.8469 302.348 96.7463V101.705H300.22Z" fill="#E8F54A"/>
</svg>
